<?xml version="1.0" encoding="utf-8"?>
<!-- Generator: Adobe Illustrator 24.3.0, SVG Export Plug-In . SVG Version: 6.00 Build 0)  -->
<svg version="1.1" id="_0" xmlns="http://www.w3.org/2000/svg" xmlns:xlink="http://www.w3.org/1999/xlink" x="0px" y="0px"
	 viewBox="0 0 56.7 56.7" style="enable-background:new 0 0 56.7 56.7;" xml:space="preserve">
<style type="text/css">
	.st0{fill:#EFBC62;}
	.st1{fill:#00325F;}
</style>
<g>
	<g id="REGION">
		<path class="st0" d="M17.9,12.1v1L1.2,29.3V0h4.5C12.4,0,17.8,5.4,17.9,12.1z"/>
	</g>
	<g id="REGION-2">
		<path class="st0" d="M54.1,55.4c-0.2,0.7-0.9,1.2-1.7,1.2H32.1c-2.5,0-4.8-1.8-5.4-4.2l-8.8-32.9l0,0l35.7,34.3
			C54.1,54.2,54.2,54.8,54.1,55.4z"/>
	</g>
	<g id="REGION-3">
		<path class="st1" d="M55,9.8l-17.6,17c-2.1,2.1-5.3,2.3-7.8,0.7l-11.8-8.1v25.7c0,6.4-5.1,11.5-11.5,11.5l0,0H1.2v-24l23.1-22.4
			c2.2-2.1,5.1-3.3,8.2-3.3h21.2c0.4,0,0.9,0.2,1.2,0.5C55.6,8.1,55.6,9.1,55,9.8z"/>
	</g>
</g>
</svg>
