<svg id="_0" data-name="0" xmlns="http://www.w3.org/2000/svg" viewBox="0 0 372 97.2"><g id="REGION"><path d="M27.5,19.9v1.6L0,48.3V0H7.5A20,20,0,0,1,27.5,19.9Z" fill="#efbc62"/></g><g id="REGION-2" data-name="REGION"><path d="M87.2,91.5a2.91,2.91,0,0,1-2.8,2H50.9a9.28,9.28,0,0,1-8.9-7L27.5,32.2h0l59,56.6A2.62,2.62,0,0,1,87.2,91.5Z" fill="#efbc62"/></g><g id="REGION-3" data-name="REGION"><path d="M88.7,16.2l-29,28.1a10.14,10.14,0,0,1-12.8,1.1L27.5,32.1V74.6a19,19,0,0,1-19,19H0V53.9l38.1-37a19.56,19.56,0,0,1,13.6-5.5h35a2.79,2.79,0,0,1,2,.8A2.84,2.84,0,0,1,88.7,16.2Z" fill="#00325f"/></g><path d="M165,66H151.7l-14-23.7h-4.9a1.27,1.27,0,0,1,.1.6,26.88,26.88,0,0,1,.5,4.7V66H121.6V12.4h11.8V27.5a29.61,29.61,0,0,1-.4,5.2c-.1.4-.1.8-.2,1.2h4.9l13.6-21.6h12.8l-14,21.6a15.45,15.45,0,0,1-1.9,2.4,15.08,15.08,0,0,1-2,1.7v.2a9.19,9.19,0,0,1,2.3,1.9,12.05,12.05,0,0,1,2,2.6Z" fill="#00325f"/><path d="M205.9,56.8l.5,8.6c-2.5.2-5.2.4-8,.5s-5.7.2-8.7.2h-8.8a11.59,11.59,0,0,1-8.3-3,10.25,10.25,0,0,1-3.1-7.8V23a10,10,0,0,1,3.1-7.8,11.59,11.59,0,0,1,8.3-3h8.8c3,0,5.8.1,8.7.2s5.5.3,8,.5l-.5,8.6H185.3a3.66,3.66,0,0,0-2.9,1,4.5,4.5,0,0,0-1,3v8.4H203v8.4H181.4V52.9a4,4,0,0,0,1,3,3.66,3.66,0,0,0,2.9,1h20.6Z" fill="#00325f"/><path d="M258.3,66H245L231,42.3h-4.9c0,.2.1.4.1.6a26.88,26.88,0,0,1,.5,4.7V66H214.9V12.4h11.8V27.5a29.61,29.61,0,0,1-.4,5.2c-.1.4-.1.8-.2,1.2H231l13.6-21.6h12.8l-14,21.6a15.45,15.45,0,0,1-1.9,2.4,26.14,26.14,0,0,1-2,1.7v.2a9.19,9.19,0,0,1,2.3,1.9,12.05,12.05,0,0,1,2,2.6Z" fill="#00325f"/><path d="M293.7,15.5a3.82,3.82,0,0,0-1.5-2.2,4,4,0,0,0-2.6-.8H278.4a4.7,4.7,0,0,0-2.6.8,4.17,4.17,0,0,0-1.5,2.2L258.7,66h12.2l3.9-14.1h18.4L297.1,66h12.1ZM277.3,42.9l4.5-16.3a26.81,26.81,0,0,0,.7-2.7c.2-.9.3-1.8.5-2.6h2.1c.2.8.3,1.7.6,2.6l.6,2.7,4.5,16.3Z" fill="#00325f"/><path d="M332.4,11.4c2.6,0,5.5.1,8.6.4a56.12,56.12,0,0,1,9.1,1.7l-.8,7.8c-2.3-.1-4.9-.1-8-.2s-6.1-.1-9-.1c-1.4,0-2.7,0-3.7.1a7,7,0,0,0-2.4.6,2.43,2.43,0,0,0-1.3,1.5,7.22,7.22,0,0,0-.4,2.8,5.36,5.36,0,0,0,1.3,4,12.57,12.57,0,0,0,4.4,2.3l10.3,3.3c4.3,1.4,7.3,3.4,8.9,5.9s2.5,5.7,2.5,9.8a23.06,23.06,0,0,1-1.1,7.6,9.75,9.75,0,0,1-3.4,4.7,14.72,14.72,0,0,1-6.1,2.4,48.94,48.94,0,0,1-9.3.7q-2.7,0-7.5-.3a76.57,76.57,0,0,1-11.2-1.7l.8-8.4c3.1.1,5.7.1,8,.2s4.2.1,5.8.2h4.2a21.33,21.33,0,0,0,4.9-.4,3.36,3.36,0,0,0,2.4-1.6,7.36,7.36,0,0,0,.7-3.3,8.53,8.53,0,0,0-.5-3,4.55,4.55,0,0,0-1.6-1.8,20.22,20.22,0,0,0-3.1-1.2L324,41.7c-4.1-1.5-7-3.5-8.7-5.9a16.29,16.29,0,0,1-2.6-9.6,23.06,23.06,0,0,1,1.1-7.6,8.81,8.81,0,0,1,3.5-4.5,16.2,16.2,0,0,1,6.1-2.3C325.9,11.6,328.9,11.4,332.4,11.4Z" fill="#00325f"/><path d="M372,12.4V66H360.2V12.4Z" fill="#00325f"/><path d="M123.3,73.3v6a6.15,6.15,0,0,1-.1,1.4,7.84,7.84,0,0,1-.2,1.4,7.08,7.08,0,0,1,.1,1.4c0,.5.1.9.1,1.4v6.8h-1.7V73.3Zm3,8.2v1.4h-3.7V81.5Zm7.3-8.2-5.7,7.8a2.18,2.18,0,0,1-.4.5c-.1.2-.3.3-.4.5v.1l.5.5c.2.2.3.4.4.5l6,8.5h-2L125.2,82l6.4-8.8,2,.1Z"/><path d="M141.9,78.5a7.28,7.28,0,0,1,3.5.7,3.8,3.8,0,0,1,1.9,2.2,13.63,13.63,0,0,1,0,8,4.13,4.13,0,0,1-1.9,2.2,8.33,8.33,0,0,1-3.5.7,7.28,7.28,0,0,1-3.5-.7,3.8,3.8,0,0,1-1.9-2.2,13.63,13.63,0,0,1,0-8,4.13,4.13,0,0,1,1.9-2.2A7.28,7.28,0,0,1,141.9,78.5Zm0,1.5a5.51,5.51,0,0,0-2.5.5,3,3,0,0,0-1.3,1.6,9.6,9.6,0,0,0-.4,3.2,9.23,9.23,0,0,0,.4,3.2,3.26,3.26,0,0,0,1.3,1.7,5.51,5.51,0,0,0,2.5.5,5.83,5.83,0,0,0,2.5-.5,2.57,2.57,0,0,0,1.3-1.7,9.6,9.6,0,0,0,.4-3.2,9.23,9.23,0,0,0-.4-3.2,2.67,2.67,0,0,0-1.3-1.6A4.45,4.45,0,0,0,141.9,80Z"/><path d="M156,78.5a11.53,11.53,0,0,1,2.6.3,10.89,10.89,0,0,1,2.5,1L161,81c-.9-.3-1.7-.5-2.4-.7a7.8,7.8,0,0,0-2.2-.3,3.94,3.94,0,0,0-2,.5,2.73,2.73,0,0,0-1.1,1.6,17.22,17.22,0,0,0,0,6.4,3,3,0,0,0,1.1,1.7,3.56,3.56,0,0,0,1.9.5,6.05,6.05,0,0,0,1.5-.2c.5-.2.9-.4,1.5-.7s1.1-.8,1.8-1.3l.1,1.3a14.37,14.37,0,0,1-2.5,1.8,5.55,5.55,0,0,1-2.8.7,3.9,3.9,0,0,1-3.5-1.7,9.81,9.81,0,0,1-1.1-5.2,14,14,0,0,1,.5-4,3.52,3.52,0,0,1,1.6-2.1A3.26,3.26,0,0,1,156,78.5Zm6.4-5.4V91.8h-1.3l-.2-2.3-.2-.2v-9l.1-.4a7.08,7.08,0,0,1-.1-1.4V73l1.7.1Z"/><path d="M172.1,78.5a6.52,6.52,0,0,1,4.1,1,3.54,3.54,0,0,1,1.3,3,4.15,4.15,0,0,1-.7,2.7,2.74,2.74,0,0,1-2.3.9H167V84.8h7.1c.7,0,1.1-.2,1.3-.6a3.81,3.81,0,0,0,.3-1.6,2.26,2.26,0,0,0-.9-2,4.91,4.91,0,0,0-2.7-.6,5.83,5.83,0,0,0-2.5.5,3,3,0,0,0-1.3,1.6,12.31,12.31,0,0,0-.4,3.1,10.18,10.18,0,0,0,.5,3.4,3.41,3.41,0,0,0,1.4,1.7,6.33,6.33,0,0,0,2.6.5,18.48,18.48,0,0,0,2.3-.1c.8-.1,1.5-.1,2.1-.2l.2,1.2a5.77,5.77,0,0,1-1.4.3,11,11,0,0,1-1.8.2,9.74,9.74,0,0,1-1.6.1,7,7,0,0,1-3.5-.7,4.13,4.13,0,0,1-1.9-2.2,13.63,13.63,0,0,1,0-8,3.6,3.6,0,0,1,1.9-2.1A5.92,5.92,0,0,1,172.1,78.5Z"/><path d="M189.2,73.3v6a6.15,6.15,0,0,1-.1,1.4,7.84,7.84,0,0,1-.2,1.4,7.08,7.08,0,0,1,.1,1.4c0,.5.1.9.1,1.4v6.8h-1.7V73.3Zm3,8.2v1.4h-3.7V81.5Zm7.3-8.2-5.7,7.8a2.18,2.18,0,0,1-.4.5c-.1.2-.3.3-.4.5v.1l.5.5c.2.2.3.4.4.5l6,8.5h-2L191.1,82l6.4-8.8,2,.1Z"/><path d="M204.5,73.1V88.6a1.74,1.74,0,0,0,1.9,1.9h1.4l.2,1.3c-.1.1-.3.1-.6.2s-.5.1-.8.1h-.7a3.29,3.29,0,0,1-2.2-.8,3.2,3.2,0,0,1-.8-2.3V73.1Z"/><path d="M219.8,83.9v1.3l-6.3.1a1.77,1.77,0,0,0-2,2v1.1a2,2,0,0,0,.6,1.6,2.18,2.18,0,0,0,1.7.5,6.8,6.8,0,0,0,1.9-.3,7.22,7.22,0,0,0,2-.9,8.62,8.62,0,0,0,1.8-1.4v1.3a3.82,3.82,0,0,1-.9.9c-.4.3-.9.6-1.4.9a5.09,5.09,0,0,1-1.7.7,6.45,6.45,0,0,1-2,.3,4.48,4.48,0,0,1-2-.4,3,3,0,0,1-1.3-1.2,3.83,3.83,0,0,1-.5-1.9V87a2.87,2.87,0,0,1,.9-2.3,3.74,3.74,0,0,1,2.5-.8Zm-3.3-5.4a5.56,5.56,0,0,1,2.3.4,3,3,0,0,1,1.4,1.3,5.21,5.21,0,0,1,.5,2.3v9.3h-1.3l-.3-2.8-.1-.2V82.6a2.88,2.88,0,0,0-.6-1.9,3,3,0,0,0-2.2-.6,26.23,26.23,0,0,0-2.7.1l-3,.3-.2-1.3c.6-.1,1.2-.2,1.9-.3a14.92,14.92,0,0,1,2.1-.2A8.2,8.2,0,0,1,216.5,78.5Z"/><path d="M229.2,78.5a11.48,11.48,0,0,1,1.8.1c.6,0,1.2.1,1.8.1s1.2.1,1.7.2l-.2,1.3a20.08,20.08,0,0,0-2.5-.1h-2.5a10.93,10.93,0,0,0-2,.1,1.63,1.63,0,0,0-1.1.5,2.7,2.7,0,0,0-.4,1.5,2.17,2.17,0,0,0,.5,1.6,2.62,2.62,0,0,0,1.5.6l4,.7a4.16,4.16,0,0,1,2.2,1.1,3.29,3.29,0,0,1,.7,2.4,3.84,3.84,0,0,1-.6,2.4,2.69,2.69,0,0,1-1.8,1,12.62,12.62,0,0,1-3,.3,17.86,17.86,0,0,1-2.1-.1,15.87,15.87,0,0,1-2.9-.3l.1-1.2a6.15,6.15,0,0,1,1.4.1,7.57,7.57,0,0,1,1.5.1h1.6a14.36,14.36,0,0,0,2.4-.2,2.26,2.26,0,0,0,1.3-.6,2.59,2.59,0,0,0,.4-1.4,1.64,1.64,0,0,0-.6-1.5,3.39,3.39,0,0,0-1.5-.6l-4-.7a4.87,4.87,0,0,1-1.6-.6,5.24,5.24,0,0,1-1-1.1,4.84,4.84,0,0,1-.3-1.8,4.62,4.62,0,0,1,.5-2.3,2.94,2.94,0,0,1,1.6-1A5.58,5.58,0,0,1,229.2,78.5Z"/><path d="M239.9,73.3a.53.53,0,0,1,.6.6v1.6a.53.53,0,0,1-.6.6h-.8a.53.53,0,0,1-.6-.6V73.9a.53.53,0,0,1,.6-.6Zm.4,5.5v13h-1.7v-13Z"/><path d="M254.6,78.8v1.4H243.4V78.9l2.5-.1Zm-5.1-6.2h1.4c.6,0,1.1.1,1.5.1V74h-2.3a2.81,2.81,0,0,0-2,.6,2.93,2.93,0,0,0-.6,2.1V91.8h-1.7V76.5a4.64,4.64,0,0,1,.4-2.1,2.54,2.54,0,0,1,1.2-1.3A4.06,4.06,0,0,1,249.5,72.6Zm6,.7a.53.53,0,0,1,.6.6v1.6a.53.53,0,0,1-.6.6h-.8c-.4,0-.5-.2-.5-.6V73.9c0-.4.2-.6.5-.6Zm.5,5.5v13h-1.7v-13Z"/><path d="M262.3,73.1v8.5a6.15,6.15,0,0,1-.1,1.4,7.84,7.84,0,0,1-.2,1.4,7.08,7.08,0,0,1,.1,1.4v5.9h-1.7V73.1Zm2.3,10.7v1.3h-3.1V83.8Zm6-5-4.4,4.9c-.1.1-.2.3-.4.4s-.3.3-.4.3v.1l.4.4a1.76,1.76,0,0,1,.4.5l4.8,6.4h-2l-5.4-7.4,5-5.5h2Z"/><path d="M283.2,83.9v1.3l-6.3.1a1.77,1.77,0,0,0-2,2v1.1a2,2,0,0,0,.6,1.6,2.18,2.18,0,0,0,1.7.5,6.8,6.8,0,0,0,1.9-.3,7.22,7.22,0,0,0,2-.9,8.62,8.62,0,0,0,1.8-1.4v1.3a3.82,3.82,0,0,1-.9.9c-.4.3-.9.6-1.4.9a5.09,5.09,0,0,1-1.7.7,6.45,6.45,0,0,1-2,.3,4.48,4.48,0,0,1-2-.4,3,3,0,0,1-1.3-1.2,3.83,3.83,0,0,1-.5-1.9V87a2.87,2.87,0,0,1,.9-2.3,3.74,3.74,0,0,1,2.5-.8Zm-3.3-5.4a5.56,5.56,0,0,1,2.3.4,3,3,0,0,1,1.4,1.3,5.21,5.21,0,0,1,.5,2.3v9.3h-1.3l-.3-2.8-.1-.2V82.6a2.88,2.88,0,0,0-.6-1.9,3,3,0,0,0-2.2-.6,26.23,26.23,0,0,0-2.7.1l-3,.3-.2-1.3c.6-.1,1.2-.2,1.9-.3a14.92,14.92,0,0,1,2.1-.2C278.4,78.7,279.2,78.5,279.9,78.5Z"/><path d="M292.6,78.5a11.48,11.48,0,0,1,1.8.1c.6,0,1.2.1,1.8.1s1.2.1,1.7.2l-.2,1.3a20.08,20.08,0,0,0-2.5-.1h-2.5a10.93,10.93,0,0,0-2,.1,1.63,1.63,0,0,0-1.1.5,2.7,2.7,0,0,0-.4,1.5,2.17,2.17,0,0,0,.5,1.6,2.62,2.62,0,0,0,1.5.6l4,.7a4.16,4.16,0,0,1,2.2,1.1,3.29,3.29,0,0,1,.7,2.4,3.84,3.84,0,0,1-.6,2.4,2.69,2.69,0,0,1-1.8,1,12.62,12.62,0,0,1-3,.3,17.86,17.86,0,0,1-2.1-.1,15.87,15.87,0,0,1-2.9-.3l.1-1.2a6.15,6.15,0,0,1,1.4.1,7.57,7.57,0,0,1,1.5.1h1.6a14.36,14.36,0,0,0,2.4-.2,2.26,2.26,0,0,0,1.3-.6,2.59,2.59,0,0,0,.4-1.4,1.64,1.64,0,0,0-.6-1.5,3.39,3.39,0,0,0-1.5-.6l-4-.7a4.87,4.87,0,0,1-1.6-.6,5.24,5.24,0,0,1-1-1.1,4.84,4.84,0,0,1-.3-1.8,4.62,4.62,0,0,1,.5-2.3,2.94,2.94,0,0,1,1.6-1A5.58,5.58,0,0,1,292.6,78.5Z"/><path d="M303.3,73.3a.53.53,0,0,1,.6.6v1.6a.53.53,0,0,1-.6.6h-.8a.53.53,0,0,1-.6-.6V73.9a.53.53,0,0,1,.6-.6Zm.4,5.5v13H302v-13Z"/><path d="M320.7,73.3c.2,0,.3,0,.4.1a1.38,1.38,0,0,1,.3.4l6.2,18h-1.8l-5.2-15.6a1.88,1.88,0,0,1-.2-.8,2.54,2.54,0,0,1-.2-.7h-.8c-.1.2-.1.5-.2.7s-.2.5-.3.8l-5.2,15.6h-1.8l6.2-18c.1-.2.1-.3.3-.4a.6.6,0,0,1,.4-.1Zm3.6,10.8v1.5H315V84.1Z"/><path d="M331.5,78.8l.2,2.5.2.4V91.8h-1.7v-13Zm6.4-.3-.2,1.6h-.6a7.42,7.42,0,0,0-2.5.5,30.81,30.81,0,0,0-2.9,1.6l-.1-1.1a16.61,16.61,0,0,1,3-1.9,6.19,6.19,0,0,1,2.9-.7Z"/><path d="M344.9,78.5a11.48,11.48,0,0,1,1.8.1c.6,0,1.2.1,1.8.1s1.2.1,1.7.2l-.2,1.3a20.08,20.08,0,0,0-2.5-.1H345a10.93,10.93,0,0,0-2,.1,1.63,1.63,0,0,0-1.1.5,2.7,2.7,0,0,0-.4,1.5,2.17,2.17,0,0,0,.5,1.6,2.62,2.62,0,0,0,1.5.6l4,.7a4.16,4.16,0,0,1,2.2,1.1,3.29,3.29,0,0,1,.7,2.4,3.84,3.84,0,0,1-.6,2.4,2.69,2.69,0,0,1-1.8,1,12.62,12.62,0,0,1-3,.3,17.86,17.86,0,0,1-2.1-.1,15.87,15.87,0,0,1-2.9-.3l.1-1.2a6.15,6.15,0,0,1,1.4.1,7.57,7.57,0,0,1,1.5.1h1.6a14.36,14.36,0,0,0,2.4-.2,2.26,2.26,0,0,0,1.3-.6,2.59,2.59,0,0,0,.4-1.4,1.64,1.64,0,0,0-.6-1.5,3.39,3.39,0,0,0-1.5-.6l-4-.7a4.87,4.87,0,0,1-1.6-.6,5.24,5.24,0,0,1-1-1.1,4.84,4.84,0,0,1-.3-1.8,4.62,4.62,0,0,1,.5-2.3,2.94,2.94,0,0,1,1.6-1A5.42,5.42,0,0,1,344.9,78.5Z"/><path d="M355.6,73.3a.53.53,0,0,1,.6.6v1.6a.53.53,0,0,1-.6.6h-.8a.53.53,0,0,1-.6-.6V73.9a.53.53,0,0,1,.6-.6Zm.4,5.5v13h-1.7v-13Z"/><path d="M362,78.8l.2,2.6.1.2v8.6l-.1.3a7.08,7.08,0,0,1,.1,1.4v5.3h-1.7V78.8Zm5.5-.3a3.9,3.9,0,0,1,3.5,1.7c.7,1.1,1,2.8,1,5.2a14,14,0,0,1-.5,4,3.52,3.52,0,0,1-1.6,2.1,5.49,5.49,0,0,1-2.8.7,7.83,7.83,0,0,1-2.6-.4,9.1,9.1,0,0,1-2.5-1.1l.1-1.1c.9.3,1.7.5,2.4.7a7.8,7.8,0,0,0,2.2.3,3.94,3.94,0,0,0,2-.5,2.73,2.73,0,0,0,1.1-1.6,13.3,13.3,0,0,0,.3-3.2,12.39,12.39,0,0,0-.3-3.1,3.5,3.5,0,0,0-1-1.7,3.56,3.56,0,0,0-1.9-.5,4.56,4.56,0,0,0-2.2.6c-.7.4-1.6,1-2.6,1.7l-.1-1.2a11.51,11.51,0,0,1,1.7-1.4,6.63,6.63,0,0,1,1.9-.9A6.8,6.8,0,0,1,367.5,78.5Z"/></svg>