<?xml version="1.0" encoding="utf-8"?>
<!-- Generator: Adobe Illustrator 24.3.0, SVG Export Plug-In . SVG Version: 6.00 Build 0)  -->
<svg version="1.1" id="_0" xmlns="http://www.w3.org/2000/svg" xmlns:xlink="http://www.w3.org/1999/xlink" x="0px" y="0px"
	 viewBox="0 0 372 97.2" style="enable-background:new 0 0 372 97.2;" xml:space="preserve">
<style type="text/css">
	.st0{fill:#EFBC62;}
	.st1{fill:#00325F;}
</style>
<g id="REGION">
	<path class="st0" d="M27.5,19.9v1.6L0,48.3V0h7.5C18.5,0,27.4,8.9,27.5,19.9z"/>
</g>
<g id="REGION-2">
	<path class="st0" d="M87.2,91.5c-0.4,1.2-1.5,2-2.8,2H50.9c-4.2,0-7.9-2.9-8.9-7L27.5,32.2l0,0l59,56.6
		C87.2,89.5,87.5,90.5,87.2,91.5z"/>
</g>
<g id="REGION-3">
	<path class="st1" d="M88.7,16.2l-29,28.1c-3.5,3.4-8.8,3.8-12.8,1.1L27.5,32.1v42.5c0,10.5-8.5,19-19,19l0,0H0V53.9l38.1-37
		c3.6-3.5,8.5-5.5,13.6-5.5h35c0.7,0,1.5,0.3,2,0.8C89.8,13.3,89.8,15.1,88.7,16.2z"/>
</g>
<path d="M123.3,73.3v6c0,0.5,0,0.9-0.1,1.4c0,0.5-0.1,0.9-0.2,1.4c0.1,0.5,0.1,0.9,0.1,1.4c0,0.5,0.1,0.9,0.1,1.4v6.8h-1.7V73.3
	H123.3z M126.3,81.5v1.4h-3.7v-1.4H126.3z M133.6,73.3l-5.7,7.8c-0.1,0.2-0.2,0.4-0.4,0.5c-0.1,0.2-0.3,0.3-0.4,0.5v0.1l0.5,0.5
	c0.2,0.2,0.3,0.4,0.4,0.5l6,8.5h-2l-6.8-9.7l6.4-8.8L133.6,73.3L133.6,73.3z"/>
<path d="M141.9,78.5c1.2-0.1,2.4,0.2,3.5,0.7c0.9,0.5,1.6,1.2,1.9,2.2c0.8,2.6,0.8,5.4,0,8c-0.3,0.9-1,1.7-1.9,2.2
	c-1.1,0.5-2.3,0.7-3.5,0.7c-1.2,0.1-2.4-0.2-3.5-0.7c-0.9-0.5-1.6-1.2-1.9-2.2c-0.8-2.6-0.8-5.4,0-8c0.3-0.9,1-1.7,1.9-2.2
	C139.5,78.7,140.7,78.4,141.9,78.5z M141.9,80c-0.9,0-1.7,0.1-2.5,0.5c-0.6,0.4-1.1,0.9-1.3,1.6c-0.3,1-0.4,2.1-0.4,3.2
	c-0.1,1.1,0.1,2.2,0.4,3.2c0.2,0.7,0.7,1.3,1.3,1.7c0.8,0.4,1.6,0.5,2.5,0.5c0.9,0,1.7-0.2,2.5-0.5c0.7-0.4,1.1-1,1.3-1.7
	c0.3-1,0.4-2.1,0.4-3.2c0.1-1.1-0.1-2.2-0.4-3.2c-0.2-0.7-0.7-1.3-1.3-1.6C143.6,80.1,142.8,79.9,141.9,80z"/>
<path d="M156,78.5c0.9,0,1.7,0.1,2.6,0.3c0.9,0.2,1.7,0.6,2.5,1L161,81c-0.9-0.3-1.7-0.5-2.4-0.7c-0.7-0.2-1.5-0.3-2.2-0.3
	c-0.7,0-1.4,0.2-2,0.5c-0.6,0.4-0.9,0.9-1.1,1.6c-0.4,2.1-0.4,4.3,0,6.4c0.2,0.7,0.5,1.3,1.1,1.7c0.6,0.3,1.2,0.5,1.9,0.5
	c0.5,0,1-0.1,1.5-0.2c0.5-0.2,0.9-0.4,1.5-0.7s1.1-0.8,1.8-1.3l0.1,1.3c-0.8,0.7-1.6,1.3-2.5,1.8c-0.9,0.5-1.8,0.7-2.8,0.7
	c-1.4,0.1-2.7-0.6-3.5-1.7c-0.8-1.6-1.2-3.4-1.1-5.2c0-1.4,0.1-2.7,0.5-4c0.2-0.9,0.8-1.6,1.6-2.1C154.1,78.7,155.1,78.4,156,78.5z
	 M162.4,73.1v18.7h-1.3l-0.2-2.3l-0.2-0.2v-9l0.1-0.4c-0.1-0.5-0.1-0.9-0.1-1.4V73L162.4,73.1z"/>
<path d="M172.1,78.5c1.4-0.1,2.9,0.2,4.1,1c0.9,0.7,1.4,1.8,1.3,3c0.1,1-0.2,1.9-0.7,2.7c-0.6,0.6-1.4,1-2.3,0.9H167v-1.3h7.1
	c0.7,0,1.1-0.2,1.3-0.6c0.2-0.5,0.3-1.1,0.3-1.6c0.1-0.8-0.3-1.5-0.9-2c-0.8-0.5-1.8-0.7-2.7-0.6c-0.9,0-1.7,0.2-2.5,0.5
	c-0.6,0.4-1.1,0.9-1.3,1.6c-0.3,1-0.4,2.1-0.4,3.1c0,1.2,0.1,2.3,0.5,3.4c0.3,0.7,0.8,1.3,1.4,1.7c0.8,0.3,1.7,0.5,2.6,0.5
	c0.8,0,1.5,0,2.3-0.1c0.8-0.1,1.5-0.1,2.1-0.2l0.2,1.2c-0.5,0.2-0.9,0.3-1.4,0.3c-0.6,0.1-1.2,0.2-1.8,0.2c-0.5,0.1-1.1,0.1-1.6,0.1
	c-1.2,0.1-2.4-0.2-3.5-0.7c-0.9-0.5-1.6-1.3-1.9-2.2c-0.8-2.6-0.8-5.4,0-8c0.3-0.9,1-1.7,1.9-2.1C169.7,78.7,170.9,78.4,172.1,78.5z
	"/>
<path d="M189.2,73.3v6c0,0.5,0,0.9-0.1,1.4c0,0.5-0.1,0.9-0.2,1.4c0.1,0.5,0.1,0.9,0.1,1.4c0,0.5,0.1,0.9,0.1,1.4v6.8h-1.7V73.3
	H189.2z M192.2,81.5v1.4h-3.7v-1.4H192.2z M199.5,73.3l-5.7,7.8c-0.1,0.2-0.2,0.4-0.4,0.5c-0.1,0.2-0.3,0.3-0.4,0.5v0.1l0.5,0.5
	c0.2,0.2,0.3,0.4,0.4,0.5l6,8.5h-2l-6.8-9.7l6.4-8.8C197.5,73.2,199.5,73.3,199.5,73.3z"/>
<path d="M204.5,73.1v15.5c-0.1,1,0.6,1.8,1.6,1.9c0.1,0,0.2,0,0.3,0h1.4l0.2,1.3c-0.1,0.1-0.3,0.1-0.6,0.2s-0.5,0.1-0.8,0.1h-0.7
	c-0.8,0-1.6-0.3-2.2-0.8c-0.6-0.6-0.8-1.5-0.8-2.3V73.1H204.5z"/>
<path d="M219.8,83.9v1.3l-6.3,0.1c-1-0.1-1.9,0.5-2,1.5c0,0.2,0,0.3,0,0.5v1.1c0,0.6,0.2,1.2,0.6,1.6c0.5,0.4,1.1,0.6,1.7,0.5
	c0.6,0,1.3-0.1,1.9-0.3c0.7-0.2,1.4-0.5,2-0.9c0.7-0.4,1.3-0.9,1.8-1.4v1.3c-0.2,0.3-0.6,0.7-0.9,0.9c-0.4,0.3-0.9,0.6-1.4,0.9
	c-0.5,0.3-1.1,0.6-1.7,0.7c-0.6,0.2-1.3,0.3-2,0.3c-0.7,0-1.4-0.1-2-0.4c-0.5-0.3-1-0.7-1.3-1.2c-0.3-0.6-0.5-1.2-0.5-1.9V87
	c-0.1-0.9,0.3-1.7,0.9-2.3c0.7-0.6,1.6-0.8,2.5-0.8L219.8,83.9z M216.5,78.5c0.8,0,1.6,0.1,2.3,0.4c0.6,0.3,1.1,0.7,1.4,1.3
	c0.3,0.7,0.5,1.5,0.5,2.3v9.3h-1.3l-0.3-2.8l-0.1-0.2v-6.2c0-0.7-0.2-1.4-0.6-1.9c-0.6-0.5-1.4-0.7-2.2-0.6c-0.9,0-1.8,0-2.7,0.1
	l-3,0.3l-0.2-1.3c0.6-0.1,1.2-0.2,1.9-0.3c0.7-0.1,1.4-0.2,2.1-0.2C215,78.5,215.8,78.5,216.5,78.5z"/>
<path d="M229.2,78.5c0.6,0,1.2,0,1.8,0.1c0.6,0,1.2,0.1,1.8,0.1s1.2,0.1,1.7,0.2l-0.2,1.3c-0.8-0.1-1.7-0.1-2.5-0.1h-2.5
	c-0.7,0-1.3,0-2,0.1c-0.4,0-0.8,0.2-1.1,0.5c-0.3,0.5-0.4,1-0.4,1.5c-0.1,0.6,0.1,1.2,0.5,1.6c0.4,0.4,0.9,0.6,1.5,0.6l4,0.7
	c0.8,0.1,1.6,0.5,2.2,1.1c0.5,0.7,0.8,1.5,0.7,2.4c0.1,0.8-0.1,1.7-0.6,2.4c-0.4,0.6-1.1,0.9-1.8,1c-1,0.2-2,0.3-3,0.3
	c-0.7,0-1.4,0-2.1-0.1c-1,0-1.9-0.1-2.9-0.3l0.1-1.2c0.5,0,0.9,0,1.4,0.1c0.5,0,1,0,1.5,0.1h1.6c0.8,0,1.6-0.1,2.4-0.2
	c0.5-0.1,0.9-0.3,1.3-0.6c0.3-0.4,0.4-0.9,0.4-1.4c0.1-0.6-0.2-1.1-0.6-1.5c-0.4-0.3-1-0.5-1.5-0.6l-4-0.7c-0.6-0.1-1.1-0.3-1.6-0.6
	c-0.4-0.3-0.7-0.7-1-1.1c-0.2-0.6-0.3-1.2-0.3-1.8c0-0.8,0.1-1.6,0.5-2.3c0.4-0.5,1-0.9,1.6-1C227.1,78.6,228.1,78.4,229.2,78.5z"/>
<path d="M239.9,73.3c0.3,0,0.6,0.2,0.6,0.4c0,0.1,0,0.1,0,0.2v1.6c0,0.3-0.2,0.6-0.4,0.6c-0.1,0-0.1,0-0.2,0h-0.8
	c-0.3,0-0.6-0.2-0.6-0.4c0-0.1,0-0.1,0-0.2v-1.6c0-0.3,0.2-0.6,0.4-0.6c0.1,0,0.1,0,0.2,0H239.9z M240.3,78.8v13h-1.7v-13H240.3z"/>
<path d="M254.6,78.8v1.4h-11.2v-1.3l2.5-0.1H254.6z M249.5,72.6h1.4c0.6,0,1.1,0.1,1.5,0.1V74h-2.3c-0.7-0.1-1.4,0.2-2,0.6
	c-0.5,0.6-0.7,1.3-0.6,2.1v15.1h-1.7V76.5c0-0.7,0.1-1.4,0.4-2.1c0.2-0.6,0.7-1,1.2-1.3C248,72.7,248.8,72.6,249.5,72.6z
	 M255.5,73.3c0.3,0,0.6,0.2,0.6,0.4c0,0.1,0,0.1,0,0.2v1.6c0,0.3-0.2,0.6-0.4,0.6c-0.1,0-0.1,0-0.2,0h-0.8c-0.4,0-0.5-0.2-0.5-0.6
	v-1.6c0-0.4,0.2-0.6,0.5-0.6H255.5z M256,78.8v13h-1.7v-13H256z"/>
<path d="M262.3,73.1v8.5c0,0.5,0,0.9-0.1,1.4c0,0.5-0.1,0.9-0.2,1.4c0.1,0.5,0.1,0.9,0.1,1.4v5.9h-1.7V73.1H262.3z M264.6,83.8v1.3
	h-3.1v-1.3L264.6,83.8z M270.6,78.8l-4.4,4.9c-0.1,0.1-0.2,0.3-0.4,0.4s-0.3,0.3-0.4,0.3v0.1l0.4,0.4c0.2,0.1,0.3,0.3,0.4,0.5
	l4.8,6.4h-2l-5.4-7.4l5-5.5h2V78.8z"/>
<path d="M283.2,83.9v1.3l-6.3,0.1c-1-0.1-1.9,0.5-2,1.5c0,0.2,0,0.3,0,0.5v1.1c0,0.6,0.2,1.2,0.6,1.6c0.5,0.4,1.1,0.6,1.7,0.5
	c0.6,0,1.3-0.1,1.9-0.3c0.7-0.2,1.4-0.5,2-0.9c0.7-0.4,1.3-0.9,1.8-1.4v1.3c-0.2,0.3-0.6,0.7-0.9,0.9c-0.4,0.3-0.9,0.6-1.4,0.9
	c-0.5,0.3-1.1,0.6-1.7,0.7c-0.6,0.2-1.3,0.3-2,0.3c-0.7,0-1.4-0.1-2-0.4c-0.5-0.3-1-0.7-1.3-1.2c-0.3-0.6-0.5-1.2-0.5-1.9V87
	c-0.1-0.9,0.3-1.7,0.9-2.3c0.7-0.6,1.6-0.8,2.5-0.8L283.2,83.9z M279.9,78.5c0.8,0,1.6,0.1,2.3,0.4c0.6,0.3,1.1,0.7,1.4,1.3
	c0.3,0.7,0.5,1.5,0.5,2.3v9.3h-1.3l-0.3-2.8l-0.1-0.2v-6.2c0-0.7-0.2-1.4-0.6-1.9c-0.6-0.5-1.4-0.7-2.2-0.6c-0.9,0-1.8,0-2.7,0.1
	l-3,0.3l-0.2-1.3c0.6-0.1,1.2-0.2,1.9-0.3c0.7-0.1,1.4-0.2,2.1-0.2C278.4,78.7,279.2,78.5,279.9,78.5L279.9,78.5z"/>
<path d="M292.6,78.5c0.6,0,1.2,0,1.8,0.1c0.6,0,1.2,0.1,1.8,0.1s1.2,0.1,1.7,0.2l-0.2,1.3c-0.8-0.1-1.7-0.1-2.5-0.1h-2.5
	c-0.7,0-1.3,0-2,0.1c-0.4,0-0.8,0.2-1.1,0.5c-0.3,0.5-0.4,1-0.4,1.5c-0.1,0.6,0.1,1.2,0.5,1.6c0.4,0.4,0.9,0.6,1.5,0.6l4,0.7
	c0.8,0.1,1.6,0.5,2.2,1.1c0.5,0.7,0.8,1.5,0.7,2.4c0.1,0.8-0.1,1.7-0.6,2.4c-0.4,0.6-1.1,0.9-1.8,1c-1,0.2-2,0.3-3,0.3
	c-0.7,0-1.4,0-2.1-0.1c-1,0-1.9-0.1-2.9-0.3l0.1-1.2c0.5,0,0.9,0,1.4,0.1c0.5,0,1,0,1.5,0.1h1.6c0.8,0,1.6-0.1,2.4-0.2
	c0.5-0.1,0.9-0.3,1.3-0.6c0.3-0.4,0.4-0.9,0.4-1.4c0.1-0.6-0.2-1.1-0.6-1.5c-0.4-0.3-1-0.5-1.5-0.6l-4-0.7c-0.6-0.1-1.1-0.3-1.6-0.6
	c-0.4-0.3-0.7-0.7-1-1.1c-0.2-0.6-0.3-1.2-0.3-1.8c0-0.8,0.1-1.6,0.5-2.3c0.4-0.5,1-0.9,1.6-1C290.5,78.6,291.5,78.4,292.6,78.5z"/>
<path d="M303.3,73.3c0.3,0,0.6,0.2,0.6,0.4c0,0.1,0,0.1,0,0.2v1.6c0,0.3-0.2,0.6-0.4,0.6c-0.1,0-0.1,0-0.2,0h-0.8
	c-0.3,0-0.6-0.2-0.6-0.4c0-0.1,0-0.1,0-0.2v-1.6c0-0.3,0.2-0.6,0.4-0.6c0.1,0,0.1,0,0.2,0H303.3z M303.7,78.8v13H302v-13H303.7z"/>
<path d="M320.7,73.3c0.2,0,0.3,0,0.4,0.1c0.1,0.1,0.2,0.2,0.3,0.4l6.2,18h-1.8l-5.2-15.6c-0.1-0.2-0.2-0.5-0.2-0.8
	c-0.1-0.2-0.2-0.5-0.2-0.7h-0.8c-0.1,0.2-0.1,0.5-0.2,0.7s-0.2,0.5-0.3,0.8l-5.2,15.6h-1.8l6.2-18c0.1-0.2,0.1-0.3,0.3-0.4
	c0.1-0.1,0.3-0.1,0.4-0.1H320.7z M324.3,84.1v1.5H315v-1.5L324.3,84.1z"/>
<path d="M331.5,78.8l0.2,2.5l0.2,0.4v10.1h-1.7v-13H331.5z M337.9,78.5l-0.2,1.6h-0.6c-0.9,0-1.7,0.2-2.5,0.5c-1,0.5-2,1-2.9,1.6
	l-0.1-1.1c0.9-0.7,1.9-1.4,3-1.9c0.9-0.5,1.9-0.7,2.9-0.7H337.9z"/>
<path d="M344.9,78.5c0.6,0,1.2,0,1.8,0.1c0.6,0,1.2,0.1,1.8,0.1s1.2,0.1,1.7,0.2l-0.2,1.3c-0.8-0.1-1.7-0.1-2.5-0.1H345
	c-0.7,0-1.3,0-2,0.1c-0.4,0-0.8,0.2-1.1,0.5c-0.3,0.5-0.4,1-0.4,1.5c-0.1,0.6,0.1,1.2,0.5,1.6c0.4,0.4,0.9,0.6,1.5,0.6l4,0.7
	c0.8,0.1,1.6,0.5,2.2,1.1c0.5,0.7,0.8,1.5,0.7,2.4c0.1,0.8-0.1,1.7-0.6,2.4c-0.4,0.6-1.1,0.9-1.8,1c-1,0.2-2,0.3-3,0.3
	c-0.7,0-1.4,0-2.1-0.1c-1,0-1.9-0.1-2.9-0.3l0.1-1.2c0.5,0,0.9,0,1.4,0.1c0.5,0,1,0,1.5,0.1h1.6c0.8,0,1.6-0.1,2.4-0.2
	c0.5-0.1,0.9-0.3,1.3-0.6c0.3-0.4,0.4-0.9,0.4-1.4c0.1-0.6-0.2-1.1-0.6-1.5c-0.4-0.3-1-0.5-1.5-0.6l-4-0.7c-0.6-0.1-1.1-0.3-1.6-0.6
	c-0.4-0.3-0.7-0.7-1-1.1c-0.2-0.6-0.3-1.2-0.3-1.8c0-0.8,0.1-1.6,0.5-2.3c0.4-0.5,1-0.9,1.6-1C342.8,78.6,343.8,78.4,344.9,78.5z"/>
<path d="M355.6,73.3c0.3,0,0.6,0.2,0.6,0.4c0,0.1,0,0.1,0,0.2v1.6c0,0.3-0.2,0.6-0.4,0.6c-0.1,0-0.1,0-0.2,0h-0.8
	c-0.3,0-0.6-0.2-0.6-0.4c0-0.1,0-0.1,0-0.2v-1.6c0-0.3,0.2-0.6,0.4-0.6c0.1,0,0.1,0,0.2,0H355.6z M356,78.8v13h-1.7v-13H356z"/>
<path d="M362,78.8l0.2,2.6l0.1,0.2v8.6l-0.1,0.3c0.1,0.5,0.1,0.9,0.1,1.4v5.3h-1.7V78.8H362z M367.5,78.5c1.4-0.1,2.7,0.6,3.5,1.7
	c0.7,1.1,1,2.8,1,5.2c0,1.4-0.1,2.7-0.5,4c-0.2,0.9-0.8,1.6-1.6,2.1c-0.9,0.5-1.8,0.7-2.8,0.7c-0.9,0-1.8-0.1-2.6-0.4
	c-0.9-0.2-1.7-0.6-2.5-1.1l0.1-1.1c0.9,0.3,1.7,0.5,2.4,0.7c0.7,0.2,1.5,0.3,2.2,0.3c0.7,0,1.4-0.2,2-0.5c0.6-0.4,0.9-0.9,1.1-1.6
	c0.2-1.1,0.3-2.1,0.3-3.2c0-1-0.1-2.1-0.3-3.1c-0.2-0.7-0.5-1.2-1-1.7c-0.6-0.3-1.2-0.5-1.9-0.5c-0.8,0-1.5,0.2-2.2,0.6
	c-0.7,0.4-1.6,1-2.6,1.7l-0.1-1.2c0.5-0.5,1.1-1,1.7-1.4c0.6-0.4,1.2-0.7,1.9-0.9C366.2,78.6,366.9,78.5,367.5,78.5z"/>
<g>
	<path class="st1" d="M131.8,63.6c0,0.7-0.2,1.3-0.5,1.5c-0.3,0.3-0.8,0.4-1.6,0.4h-7.9c-0.7,0-1.3-0.1-1.6-0.4
		c-0.3-0.3-0.5-0.8-0.5-1.5V18.4c0-0.7,0.1-1.3,0.4-1.6c1.1-1.6,2.7-3.3,4.7-5.1c0.4-0.3,0.7-0.4,1-0.4c0.3,0,0.6,0.1,0.9,0.4
		c1.1,0.9,2,1.8,2.7,2.7c0.7,0.9,1.4,1.7,1.9,2.5c0.2,0.4,0.4,0.9,0.4,1.6v15.4h0.9c3.1,0,5.6-0.4,7.5-1.3c1.9-0.9,3.4-2,4.4-3.4
		s1.7-3.1,2.1-4.8s0.6-3.6,0.6-5.4v-0.4c0-0.7,0.1-1.3,0.4-1.6c1.1-1.6,2.7-3.3,4.7-5.1c0.4-0.3,0.7-0.4,1-0.4
		c0.3,0,0.6,0.1,0.9,0.4c1.1,0.9,2,1.8,2.7,2.7c0.7,0.9,1.4,1.7,1.9,2.5c0.2,0.4,0.4,0.9,0.4,1.6v0.4c0,2-0.2,4.1-0.6,6.2
		c-0.4,2.1-1.1,4.2-2.1,6.1c-1,1.9-2.4,3.5-4.2,4.9c-1.8,1.3-4.2,2.2-7,2.6v0.3c2.6,0.8,4.9,2.2,6.9,4.1c2,1.9,3.8,4,5.2,6.5
		c1.5,2.4,2.7,4.8,3.6,7.3c0.9,2.4,1.6,4.6,2,6.6c0.2,0.9,0.2,1.5,0,1.9c-0.2,0.3-0.7,0.5-1.4,0.5h-9.1c-1.3,0-2-0.6-2.2-1.7
		c-0.4-1.9-1.1-4-2.2-6.3c-1.1-2.4-2.4-4.6-4-6.8c-1.6-2.2-3.4-4-5.3-5.4c-2-1.4-4-2.1-6.2-2.1h-0.9V63.6z"/>
	<path class="st1" d="M179.9,65.6c-2.5,0-4.5-0.3-5.8-1c-1.3-0.6-2.2-1.7-2.7-3.1c-0.5-1.5-0.7-3.4-0.7-5.8V22.4
		c0-2.5,0.2-4.4,0.7-5.9c0.5-1.4,1.3-2.5,2.7-3.1c1.3-0.6,3.3-0.9,5.8-0.9h17.4c0.6,0,1,0.1,1.3,0.3c0.6,0.4,1.3,1,2,1.6
		c0.7,0.6,1.4,1.4,2.2,2.2c0.2,0.3,0.4,0.6,0.4,0.8c0,0.2-0.1,0.5-0.4,0.7c-0.8,0.9-1.5,1.6-2.2,2.2c-0.7,0.6-1.4,1.1-2,1.6
		c-0.3,0.2-0.8,0.3-1.3,0.3H187c-1.6,0-2.7,0.3-3.3,1c-0.6,0.7-0.9,1.9-0.9,3.6V34H196c0.6,0,1,0.1,1.3,0.3c0.6,0.4,1.3,1,2,1.6
		c0.7,0.6,1.4,1.4,2.2,2.2c0.2,0.3,0.4,0.6,0.4,0.8c0,0.2-0.1,0.5-0.4,0.7c-0.8,0.9-1.5,1.6-2.2,2.2c-0.7,0.6-1.4,1.1-2,1.6
		c-0.3,0.2-0.8,0.3-1.3,0.3h-13.3v7.5c0,1.7,0.3,2.8,0.9,3.6c0.6,0.7,1.7,1.1,3.3,1.1h11.6c0.6,0,1,0.1,1.3,0.3c0.6,0.4,1.3,1,2,1.6
		c0.7,0.6,1.4,1.4,2.2,2.2c0.2,0.3,0.4,0.6,0.4,0.8c0,0.2-0.1,0.5-0.4,0.7c-0.8,0.9-1.5,1.6-2.2,2.2c-0.7,0.6-1.4,1.1-2,1.6
		c-0.3,0.2-0.8,0.3-1.3,0.3H179.9z"/>
	<path class="st1" d="M224.2,63.6c0,0.7-0.2,1.3-0.5,1.5c-0.3,0.3-0.8,0.4-1.6,0.4h-7.9c-0.7,0-1.3-0.1-1.6-0.4
		c-0.3-0.3-0.5-0.8-0.5-1.5V18.4c0-0.7,0.1-1.3,0.4-1.6c1.1-1.6,2.7-3.3,4.7-5.1c0.4-0.3,0.7-0.4,1-0.4c0.3,0,0.6,0.1,0.9,0.4
		c1.1,0.9,2,1.8,2.7,2.7c0.7,0.9,1.4,1.7,1.9,2.5c0.2,0.4,0.4,0.9,0.4,1.6v15.4h0.9c3.1,0,5.6-0.4,7.5-1.3c1.9-0.9,3.4-2,4.4-3.4
		s1.7-3.1,2.1-4.8s0.6-3.6,0.6-5.4v-0.4c0-0.7,0.1-1.3,0.4-1.6c1.1-1.6,2.7-3.3,4.7-5.1c0.4-0.3,0.7-0.4,1-0.4
		c0.3,0,0.6,0.1,0.9,0.4c1.1,0.9,2,1.8,2.7,2.7c0.7,0.9,1.4,1.7,1.9,2.5c0.2,0.4,0.4,0.9,0.4,1.6v0.4c0,2-0.2,4.1-0.6,6.2
		c-0.4,2.1-1.1,4.2-2.1,6.1c-1,1.9-2.4,3.5-4.2,4.9c-1.8,1.3-4.2,2.2-7,2.6v0.3c2.6,0.8,4.9,2.2,6.9,4.1c2,1.9,3.8,4,5.2,6.5
		c1.5,2.4,2.7,4.8,3.6,7.3c0.9,2.4,1.6,4.6,2,6.6c0.2,0.9,0.2,1.5,0,1.9c-0.2,0.3-0.7,0.5-1.4,0.5h-9.1c-1.3,0-2-0.6-2.2-1.7
		c-0.4-1.9-1.1-4-2.2-6.3c-1.1-2.4-2.4-4.6-4-6.8c-1.6-2.2-3.4-4-5.3-5.4c-2-1.4-4-2.1-6.2-2.1h-0.9V63.6z"/>
	<path class="st1" d="M292.1,15.4c1.4,1.9,2.7,4.3,4.2,7.3c1.4,3,2.8,6.3,4.1,9.9c1.3,3.6,2.5,7.2,3.6,11c1.1,3.7,2,7.3,2.6,10.8
		c0.7,3.5,1.1,6.5,1.2,9.2c0,1.3-0.6,2-1.8,2h-9c-1.2,0-1.8-0.6-1.8-1.7c-0.1-2.8-0.5-6.1-1.3-10.1h-20.2c-0.7,3.8-1.1,7.2-1.2,10.1
		c0,1.2-0.7,1.7-1.9,1.7h-8.8c-0.4,0-0.8-0.1-1.1-0.4c-0.3-0.3-0.4-0.7-0.4-1.4c0.1-2.7,0.5-5.9,1.2-9.3c0.7-3.5,1.6-7.1,2.6-10.9
		c1.1-3.8,2.3-7.4,3.6-11c1.3-3.6,2.7-6.9,4.1-9.9c1.4-3,2.8-5.4,4.2-7.3c0.7-1,1.5-1.8,2.3-2.2c0.8-0.5,1.8-0.7,3-0.7h5.3
		c1.2,0,2.2,0.2,3,0.7C290.6,13.7,291.4,14.4,292.1,15.4z M283.7,24.2c-1.6,2.6-3.1,5.7-4.5,9.3c-1.4,3.6-2.5,7.3-3.5,11.1h16.1
		c-1-3.8-2.2-7.5-3.6-11.1c-1.4-3.6-2.8-6.7-4.3-9.3H283.7z"/>
	<path class="st1" d="M330.9,66.5c-3.1,0-5.7-0.3-7.8-0.9c-2.1-0.6-3.7-1.3-5-2.1c-1.2-0.9-2.2-1.7-2.9-2.5
		c-0.2-0.3-0.4-0.6-0.6-0.9c-0.2-0.3-0.3-0.6-0.4-1c-0.1-0.5-0.2-1.1-0.3-1.9c-0.1-0.8-0.1-1.7,0-2.8c0-0.4,0.1-0.8,0.3-0.9
		c0.2-0.2,0.5-0.3,0.9-0.4c0.7-0.2,1.6-0.3,2.8-0.5c1.1-0.1,2-0.2,2.5-0.2c0.5,0,0.9,0.1,1.3,0.3c0.3,0.2,0.7,0.5,1.1,1
		c0.5,0.5,1.3,1.2,2.6,2c1.2,0.8,3.1,1.2,5.6,1.2c2.4,0,4.2-0.5,5.5-1.5c1.2-1,1.9-2.4,1.9-4.2c0-1-0.3-1.9-0.9-2.7
		c-0.6-0.9-1.6-1.7-3.2-2.6c-1.5-0.9-3.7-1.7-6.6-2.7c-4.7-1.6-8.1-3.5-10.1-5.9c-2.1-2.3-3.1-5.6-3.1-9.8c0-3.5,0.8-6.3,2.5-8.7
		c1.7-2.3,4-4.1,7-5.3c3-1.2,6.4-1.8,10.3-1.8c3,0,5.5,0.4,7.4,1.1c2,0.7,3.5,1.5,4.6,2.4c1.1,0.9,1.8,1.6,2.1,2.1
		c0.2,0.3,0.3,0.6,0.4,0.7c0.1,0.2,0.1,0.4,0.1,0.6c0.1,0.8,0.1,1.6,0.1,2.6c0,0.9-0.1,2-0.3,3.2c-0.1,0.4-0.2,0.7-0.4,0.8
		c-0.2,0.1-0.4,0.2-0.8,0.2c-2.4,0-4.2-0.1-5.6-0.4c-0.5-0.1-0.9-0.2-1-0.4c-0.2-0.1-0.4-0.3-0.7-0.6c-0.4-0.5-1-1-1.9-1.6
		c-0.9-0.6-2.2-0.9-4.1-0.9c-2.6,0-4.4,0.6-5.5,1.8c-1.1,1.2-1.6,2.5-1.6,3.9c0,1.7,0.8,3.1,2.4,4.1c1.6,1,4.1,2.1,7.6,3.3
		c2.9,1,5.4,2.1,7.4,3.3c2.1,1.2,3.7,2.7,4.8,4.6c1.1,1.9,1.6,4.3,1.6,7.3c0,3.8-0.9,6.9-2.6,9.4c-1.7,2.5-4.1,4.3-7.1,5.6
		C338.1,65.9,334.7,66.5,330.9,66.5z"/>
	<path class="st1" d="M372,63.6c0,0.7-0.2,1.3-0.5,1.5c-0.3,0.3-0.8,0.4-1.6,0.4h-7.9c-0.7,0-1.3-0.1-1.6-0.4
		c-0.3-0.3-0.5-0.8-0.5-1.5V18.4c0-0.7,0.1-1.3,0.4-1.6c1.1-1.6,2.7-3.3,4.7-5.1c0.4-0.3,0.7-0.4,1-0.4c0.3,0,0.6,0.1,0.9,0.4
		c1.1,0.9,2,1.8,2.7,2.7c0.7,0.9,1.4,1.7,1.9,2.5c0.2,0.4,0.4,0.9,0.4,1.6V63.6z"/>
</g>
</svg>
